<svg width="1728" height="1100" viewBox="0 0 1728 1100" fill="none" xmlns="http://www.w3.org/2000/svg">
<g filter="url(#filter0_f_113_833)">
<path d="M1515.36 699.241C1548.27 667.971 1560.39 634.583 1550.83 601.508C1541.28 568.432 1510.29 536.503 1460.12 508.044C1409.96 479.586 1341.88 455.315 1260.85 436.999C1179.82 418.683 1087.87 406.784 991.707 402.167C895.541 397.55 797.577 400.332 704.949 410.311C612.322 420.289 527.363 437.213 456.259 459.85C385.156 482.486 329.698 510.266 293.925 541.165C258.151 572.064 242.963 605.305 249.466 638.467L901 623.5L1515.36 699.241Z" fill="#130445"/>
</g>
<path d="M848.581 801.53L847.435 864.867C847.422 865.609 846.633 866.078 845.974 865.736L824.059 854.342C823.117 853.852 822.162 854.975 822.796 855.827L837.532 875.626C837.958 876.198 837.664 877.021 836.971 877.193L776.318 892.275C775.19 892.556 775.368 894.211 776.53 894.245L838.887 896.053C839.609 896.073 840.072 896.83 839.761 897.482L829.228 919.601C828.781 920.539 829.884 921.452 830.722 920.837L850.228 906.534C850.808 906.109 851.633 906.416 851.794 907.117L865.836 968.413C866.096 969.548 867.757 969.398 867.809 968.235L870.65 905.104C870.682 904.401 871.41 903.95 872.054 904.234L894.669 914.231C895.623 914.653 896.505 913.516 895.858 912.697L880.535 893.279C880.083 892.705 880.378 891.856 881.088 891.687L942.281 877.108C943.414 876.838 943.25 875.178 942.086 875.136L879.105 872.839C878.383 872.813 877.927 872.054 878.241 871.404L889.103 848.986C889.567 848.028 888.41 847.104 887.578 847.769L867.878 863.521C867.311 863.975 866.464 863.691 866.285 862.987L850.55 801.301C850.262 800.171 848.602 800.365 848.581 801.53Z" fill="url(#paint0_radial_113_833)"/>
<g opacity="0.5" filter="url(#filter1_f_113_833)" style="mix-blend-mode:plus-lighter">
<path d="M848.581 801.53L847.435 864.867C847.422 865.609 846.633 866.078 845.974 865.736L824.059 854.342C823.117 853.852 822.162 854.975 822.796 855.827L837.532 875.626C837.958 876.198 837.664 877.021 836.971 877.193L776.318 892.275C775.19 892.556 775.368 894.211 776.53 894.245L838.887 896.053C839.609 896.073 840.072 896.83 839.761 897.482L829.228 919.601C828.781 920.539 829.884 921.452 830.722 920.837L850.228 906.534C850.808 906.109 851.633 906.416 851.794 907.117L865.836 968.413C866.096 969.548 867.757 969.398 867.809 968.235L870.65 905.104C870.682 904.401 871.41 903.95 872.054 904.234L894.669 914.231C895.623 914.653 896.505 913.516 895.858 912.697L880.535 893.279C880.083 892.705 880.378 891.856 881.088 891.687L942.281 877.108C943.414 876.838 943.25 875.178 942.086 875.136L879.105 872.839C878.383 872.813 877.927 872.054 878.241 871.404L889.103 848.986C889.567 848.028 888.41 847.104 887.578 847.769L867.878 863.521C867.311 863.975 866.464 863.691 866.285 862.987L850.55 801.301C850.262 800.171 848.602 800.365 848.581 801.53Z" fill="url(#paint1_radial_113_833)"/>
</g>
<g opacity="0.87">
<g filter="url(#filter2_f_113_833)" style="mix-blend-mode:color-dodge">
<path d="M739.192 675.335C754.474 746.973 848.68 863.256 848.68 863.256C848.68 863.256 747.248 749.284 728.898 677.531C703.534 578.348 847.788 455.499 847.788 455.499L860.203 458.643C860.203 458.643 718.228 577.066 739.192 675.335Z" fill="url(#paint2_linear_113_833)"/>
</g>
<g filter="url(#filter3_f_113_833)" style="mix-blend-mode:color-dodge">
<path d="M840.41 593.168C762.938 690.062 851.965 857.85 851.965 857.85C851.965 857.85 770.86 680.191 858.618 585.611C915.901 523.875 979.892 491.304 1080.58 462.834C1289.26 403.832 885 138 885 138L851.965 138C851.965 138 1274.03 388.429 1075.78 447.264C965.67 479.943 896.592 522.9 840.41 593.168Z" fill="url(#paint3_linear_113_833)"/>
</g>
<g opacity="0.25" filter="url(#filter4_f_113_833)" style="mix-blend-mode:color-dodge">
<path d="M755.887 633.473C747.663 691.606 797.502 763.112 797.502 763.112C797.502 763.112 783.759 669.893 810.008 614.606C847.158 536.357 1001.37 446.821 1001.37 446.821L902.27 419.647C902.27 419.647 767.664 550.227 755.887 633.473Z" fill="url(#paint4_linear_113_833)"/>
</g>
<g opacity="0.25" filter="url(#filter5_f_113_833)" style="mix-blend-mode:color-dodge">
<path d="M868.318 585.674C782.561 669.156 853.535 827.487 853.535 827.487C853.535 827.487 797.394 666.61 897.377 593.117C965.989 542.684 1034.52 527.717 1135 513.644C1345.64 484.144 1282 204 1282 204L1119.5 223.5C1119.5 223.5 1329.39 434.288 1130.43 470.495C1012.84 491.893 935.598 520.179 868.318 585.674Z" fill="url(#paint5_linear_113_833)"/>
</g>
<g filter="url(#filter6_f_113_833)" style="mix-blend-mode:color-dodge">
<path d="M707.455 652.86C707.505 721.342 791.806 813.553 791.806 813.553C791.806 813.553 699.322 723.275 697.503 654.13C696.143 602.448 744.428 524.327 744.428 524.327L755.719 522.886C755.719 522.886 707.416 600.97 707.455 652.86Z" fill="url(#paint6_linear_113_833)"/>
</g>
<g filter="url(#filter7_f_113_833)" style="mix-blend-mode:color-dodge">
<path d="M1143 263L1072 237.5C1072 237.5 1245.64 451.432 994.88 553.73C781.82 640.648 867.126 832.147 867.126 832.147C867.126 832.147 850.051 679.166 1030.48 617C1291.9 526.931 1143 263 1143 263Z" fill="url(#paint7_linear_113_833)"/>
</g>
<g opacity="0.96" filter="url(#filter8_f_113_833)" style="mix-blend-mode:color-dodge">
<path d="M739.192 675.335C754.474 746.973 848.68 863.256 848.68 863.256C848.68 863.256 747.248 749.284 728.898 677.531C703.534 578.348 847.788 455.499 847.788 455.499L860.203 458.643C860.203 458.643 718.228 577.066 739.192 675.335Z" fill="url(#paint8_linear_113_833)"/>
</g>
<g opacity="0.96" filter="url(#filter9_f_113_833)" style="mix-blend-mode:color-dodge">
<path d="M832.853 625.105C812.687 737.03 851.965 857.85 851.965 857.85C851.965 857.85 790.141 722.426 832.853 625.105C834.792 614.338 837.282 603.654 840.41 593.168C862.482 519.166 954.045 454.831 983 458C1181.25 399.165 907 117 907 117L962.5 117C962.5 117 1284.46 414.498 1075.78 473.499C975.09 501.969 915.901 523.875 858.618 585.611C847.48 597.615 839.061 610.957 832.853 625.105Z" fill="url(#paint9_linear_113_833)"/>
</g>
<g opacity="0.21" filter="url(#filter10_f_113_833)" style="mix-blend-mode:color-dodge">
<path d="M755.887 633.473C747.663 691.606 797.502 763.112 797.502 763.112C797.502 763.112 783.759 669.893 810.008 614.606C847.158 536.357 1001.37 446.821 1001.37 446.821L902.27 419.647C902.27 419.647 767.664 550.227 755.887 633.473Z" fill="url(#paint10_linear_113_833)"/>
</g>
<g opacity="0.21" filter="url(#filter11_f_113_833)" style="mix-blend-mode:color-dodge">
<path d="M868.318 585.674C782.561 669.156 853.535 827.487 853.535 827.487C853.535 827.487 797.394 666.61 897.377 593.117C965.989 542.684 1034.52 527.717 1135 513.644C1345.64 484.144 1175 245.5 1175 245.5L1091 188.5C1091 188.5 1329.39 434.288 1130.43 470.495C1012.84 491.893 935.598 520.179 868.318 585.674Z" fill="url(#paint11_linear_113_833)"/>
</g>
<g opacity="0.96" filter="url(#filter12_f_113_833)" style="mix-blend-mode:color-dodge">
<path d="M707.455 652.86C707.505 721.342 791.806 813.553 791.806 813.553C791.806 813.553 699.322 723.275 697.503 654.13C696.143 602.448 744.428 524.327 744.428 524.327L755.719 522.886C755.719 522.886 707.416 600.97 707.455 652.86Z" fill="url(#paint12_linear_113_833)"/>
</g>
<g opacity="0.96" filter="url(#filter13_f_113_833)" style="mix-blend-mode:color-dodge">
<path d="M959.5 153.5L1030.48 195C1030.48 195 1137.07 309.036 1124.15 413.839C1142.38 485.357 1126.41 552.306 1030.48 585.359C850.051 647.524 867.126 832.147 867.126 832.147C867.126 832.147 794.44 627.918 1007.5 541C1086.73 508.679 1118.18 462.244 1124.15 413.839C1092.7 290.466 959.5 153.5 959.5 153.5Z" fill="url(#paint13_linear_113_833)"/>
</g>
<g filter="url(#filter14_f_113_833)" style="mix-blend-mode:plus-lighter">
<path d="M941.562 572.913C825.051 646.519 852.87 816.261 852.87 816.261C852.87 816.261 830.708 646.889 952.048 578.956C1085.27 504.371 1138.5 414.999 1138.5 414.999L1138.5 359.499C1138.5 359.499 1070.95 491.174 941.562 572.913Z" fill="url(#paint14_linear_113_833)"/>
</g>
<g opacity="0.75" filter="url(#filter15_f_113_833)" style="mix-blend-mode:plus-lighter">
<path d="M772.086 618.668C755.823 674.608 832.453 802.241 832.453 802.241C832.453 802.241 759.482 674.786 778.41 621.403C796.086 571.552 863.058 510.409 863.058 510.409L854.855 499.52C854.855 499.52 787.407 565.966 772.086 618.668Z" fill="url(#paint15_linear_113_833)"/>
</g>
<g opacity="0.6" filter="url(#filter16_f_113_833)" style="mix-blend-mode:plus-lighter">
<path d="M864.582 692.272C846.512 756.854 852.87 816.262 852.87 816.262C852.87 816.262 844.928 755.567 864.582 692.272C876.549 649.505 899.229 604.469 941.562 572.913C1092.51 460.399 1142.27 349.805 1142.27 349.805L1159.27 384.305C1159.27 384.305 1085.27 504.371 952.048 578.956C903.345 606.223 877.761 649.832 864.582 692.272Z" fill="url(#paint16_linear_113_833)"/>
</g>
</g>
<g opacity="0.58" filter="url(#filter17_f_113_833)" style="mix-blend-mode:plus-lighter">
<path d="M972.549 175.3C972.549 175.3 973.724 181.002 975.96 182.671C978.196 184.341 984 183.849 984 183.849C984 183.849 978.472 184.714 976.743 186.794C974.718 189.231 975.451 195.3 975.451 195.3C975.451 195.3 974.212 189.158 971.976 187.489C969.74 185.819 964 186.751 964 186.751C964 186.751 969.702 185.577 971.371 183.341C973.04 181.105 972.549 175.3 972.549 175.3Z" fill="white"/>
</g>
<g opacity="0.58" filter="url(#filter18_f_113_833)" style="mix-blend-mode:plus-lighter">
<path d="M972.549 175.3C972.549 175.3 973.724 181.002 975.96 182.671C978.196 184.341 984 183.849 984 183.849C984 183.849 978.472 184.714 976.743 186.794C974.718 189.231 975.451 195.3 975.451 195.3C975.451 195.3 974.212 189.158 971.976 187.489C969.74 185.819 964 186.751 964 186.751C964 186.751 969.702 185.577 971.371 183.341C973.04 181.105 972.549 175.3 972.549 175.3Z" fill="white"/>
</g>
<g opacity="0.58" filter="url(#filter19_f_113_833)" style="mix-blend-mode:plus-lighter">
<path d="M1067.4 390.3C1067.4 390.3 1069.1 398.568 1072.34 400.988C1075.58 403.409 1084 402.696 1084 402.696C1084 402.696 1075.98 403.95 1073.48 406.966C1070.54 410.499 1071.6 419.3 1071.6 419.3C1071.6 419.3 1069.81 410.394 1066.57 407.973C1063.32 405.553 1055 406.904 1055 406.904C1055 406.904 1063.27 405.201 1065.69 401.959C1068.11 398.717 1067.4 390.3 1067.4 390.3Z" fill="white"/>
</g>
<g opacity="0.58" filter="url(#filter20_f_113_833)" style="mix-blend-mode:plus-lighter">
<path d="M1067.4 390.3C1067.4 390.3 1069.1 398.568 1072.34 400.988C1075.58 403.409 1084 402.696 1084 402.696C1084 402.696 1075.98 403.95 1073.48 406.966C1070.54 410.499 1071.6 419.3 1071.6 419.3C1071.6 419.3 1069.81 410.394 1066.57 407.973C1063.32 405.553 1055 406.904 1055 406.904C1055 406.904 1063.27 405.201 1065.69 401.959C1068.11 398.717 1067.4 390.3 1067.4 390.3Z" fill="white"/>
</g>
<g opacity="0.58" filter="url(#filter21_f_113_833)" style="mix-blend-mode:plus-lighter">
<path d="M916.655 640.3C916.655 640.3 919.768 655.41 925.693 659.834C931.618 664.258 947 662.955 947 662.955C947 662.955 932.35 665.245 927.77 670.757C922.403 677.216 924.345 693.3 924.345 693.3C924.345 693.3 921.063 677.023 915.137 672.599C909.212 668.176 894 670.645 894 670.645C894 670.645 909.11 667.532 913.534 661.607C917.957 655.682 916.655 640.3 916.655 640.3Z" fill="white"/>
</g>
<g opacity="0.58" filter="url(#filter22_f_113_833)" style="mix-blend-mode:plus-lighter">
<path d="M916.655 640.3C916.655 640.3 919.768 655.41 925.693 659.834C931.618 664.258 947 662.955 947 662.955C947 662.955 932.35 665.245 927.77 670.757C922.403 677.216 924.345 693.3 924.345 693.3C924.345 693.3 921.063 677.023 915.137 672.599C909.212 668.176 894 670.645 894 670.645C894 670.645 909.11 667.532 913.534 661.607C917.957 655.682 916.655 640.3 916.655 640.3Z" fill="white"/>
</g>
<g opacity="0.58" filter="url(#filter23_f_113_833)" style="mix-blend-mode:plus-lighter">
<path d="M949.396 620.3C949.396 620.3 951.099 628.568 954.341 630.988C957.584 633.409 966 632.696 966 632.696C966 632.696 957.984 633.95 955.478 636.966C952.541 640.499 953.604 649.3 953.604 649.3C953.604 649.3 951.808 640.394 948.566 637.973C945.324 635.553 937 636.904 937 636.904C937 636.904 945.268 635.201 947.688 631.959C950.109 628.717 949.396 620.3 949.396 620.3Z" fill="white"/>
</g>
<g opacity="0.58" filter="url(#filter24_f_113_833)" style="mix-blend-mode:plus-lighter">
<path d="M949.396 620.3C949.396 620.3 951.099 628.568 954.341 630.988C957.584 633.409 966 632.696 966 632.696C966 632.696 957.984 633.95 955.478 636.966C952.541 640.499 953.604 649.3 953.604 649.3C953.604 649.3 951.808 640.394 948.566 637.973C945.324 635.553 937 636.904 937 636.904C937 636.904 945.268 635.201 947.688 631.959C950.109 628.717 949.396 620.3 949.396 620.3Z" fill="white"/>
</g>
<defs>
<filter id="filter0_f_113_833" x="-152" y="0" width="2106" height="1099.24" filterUnits="userSpaceOnUse" color-interpolation-filters="sRGB">
<feFlood flood-opacity="0" result="BackgroundImageFix"/>
<feBlend mode="normal" in="SourceGraphic" in2="BackgroundImageFix" result="shape"/>
<feGaussianBlur stdDeviation="200" result="effect1_foregroundBlur_113_833"/>
</filter>
<filter id="filter1_f_113_833" x="675.559" y="700.548" width="367.491" height="368.643" filterUnits="userSpaceOnUse" color-interpolation-filters="sRGB">
<feFlood flood-opacity="0" result="BackgroundImageFix"/>
<feBlend mode="normal" in="SourceGraphic" in2="BackgroundImageFix" result="shape"/>
<feGaussianBlur stdDeviation="50" result="effect1_foregroundBlur_113_833"/>
</filter>
<filter id="filter2_f_113_833" x="665.907" y="395.499" width="254.297" height="527.757" filterUnits="userSpaceOnUse" color-interpolation-filters="sRGB">
<feFlood flood-opacity="0" result="BackgroundImageFix"/>
<feBlend mode="normal" in="SourceGraphic" in2="BackgroundImageFix" result="shape"/>
<feGaussianBlur stdDeviation="30" result="effect1_foregroundBlur_113_833"/>
</filter>
<filter id="filter3_f_113_833" x="748.738" y="77.9996" width="451.671" height="839.85" filterUnits="userSpaceOnUse" color-interpolation-filters="sRGB">
<feFlood flood-opacity="0" result="BackgroundImageFix"/>
<feBlend mode="normal" in="SourceGraphic" in2="BackgroundImageFix" result="shape"/>
<feGaussianBlur stdDeviation="30" result="effect1_foregroundBlur_113_833"/>
</filter>
<filter id="filter4_f_113_833" x="694.971" y="359.647" width="366.402" height="463.465" filterUnits="userSpaceOnUse" color-interpolation-filters="sRGB">
<feFlood flood-opacity="0" result="BackgroundImageFix"/>
<feBlend mode="normal" in="SourceGraphic" in2="BackgroundImageFix" result="shape"/>
<feGaussianBlur stdDeviation="30" result="effect1_foregroundBlur_113_833"/>
</filter>
<filter id="filter5_f_113_833" x="765.954" y="144" width="585.074" height="743.487" filterUnits="userSpaceOnUse" color-interpolation-filters="sRGB">
<feFlood flood-opacity="0" result="BackgroundImageFix"/>
<feBlend mode="normal" in="SourceGraphic" in2="BackgroundImageFix" result="shape"/>
<feGaussianBlur stdDeviation="30" result="effect1_foregroundBlur_113_833"/>
</filter>
<filter id="filter6_f_113_833" x="637.474" y="462.886" width="214.332" height="410.666" filterUnits="userSpaceOnUse" color-interpolation-filters="sRGB">
<feFlood flood-opacity="0" result="BackgroundImageFix"/>
<feBlend mode="normal" in="SourceGraphic" in2="BackgroundImageFix" result="shape"/>
<feGaussianBlur stdDeviation="30" result="effect1_foregroundBlur_113_833"/>
</filter>
<filter id="filter7_f_113_833" x="790.257" y="177.5" width="454.969" height="714.647" filterUnits="userSpaceOnUse" color-interpolation-filters="sRGB">
<feFlood flood-opacity="0" result="BackgroundImageFix"/>
<feBlend mode="normal" in="SourceGraphic" in2="BackgroundImageFix" result="shape"/>
<feGaussianBlur stdDeviation="30" result="effect1_foregroundBlur_113_833"/>
</filter>
<filter id="filter8_f_113_833" x="665.907" y="395.499" width="254.297" height="527.757" filterUnits="userSpaceOnUse" color-interpolation-filters="sRGB">
<feFlood flood-opacity="0" result="BackgroundImageFix"/>
<feBlend mode="normal" in="SourceGraphic" in2="BackgroundImageFix" result="shape"/>
<feGaussianBlur stdDeviation="30" result="effect1_foregroundBlur_113_833"/>
</filter>
<filter id="filter9_f_113_833" x="757.812" y="57" width="448.334" height="860.85" filterUnits="userSpaceOnUse" color-interpolation-filters="sRGB">
<feFlood flood-opacity="0" result="BackgroundImageFix"/>
<feBlend mode="normal" in="SourceGraphic" in2="BackgroundImageFix" result="shape"/>
<feGaussianBlur stdDeviation="30" result="effect1_foregroundBlur_113_833"/>
</filter>
<filter id="filter10_f_113_833" x="694.971" y="359.647" width="366.402" height="463.465" filterUnits="userSpaceOnUse" color-interpolation-filters="sRGB">
<feFlood flood-opacity="0" result="BackgroundImageFix"/>
<feBlend mode="normal" in="SourceGraphic" in2="BackgroundImageFix" result="shape"/>
<feGaussianBlur stdDeviation="30" result="effect1_foregroundBlur_113_833"/>
</filter>
<filter id="filter11_f_113_833" x="765.954" y="128.5" width="534.291" height="758.987" filterUnits="userSpaceOnUse" color-interpolation-filters="sRGB">
<feFlood flood-opacity="0" result="BackgroundImageFix"/>
<feBlend mode="normal" in="SourceGraphic" in2="BackgroundImageFix" result="shape"/>
<feGaussianBlur stdDeviation="30" result="effect1_foregroundBlur_113_833"/>
</filter>
<filter id="filter12_f_113_833" x="637.474" y="462.886" width="214.332" height="410.666" filterUnits="userSpaceOnUse" color-interpolation-filters="sRGB">
<feFlood flood-opacity="0" result="BackgroundImageFix"/>
<feBlend mode="normal" in="SourceGraphic" in2="BackgroundImageFix" result="shape"/>
<feGaussianBlur stdDeviation="30" result="effect1_foregroundBlur_113_833"/>
</filter>
<filter id="filter13_f_113_833" x="795.169" y="93.5002" width="395.575" height="798.647" filterUnits="userSpaceOnUse" color-interpolation-filters="sRGB">
<feFlood flood-opacity="0" result="BackgroundImageFix"/>
<feBlend mode="normal" in="SourceGraphic" in2="BackgroundImageFix" result="shape"/>
<feGaussianBlur stdDeviation="30" result="effect1_foregroundBlur_113_833"/>
</filter>
<filter id="filter14_f_113_833" x="789.964" y="299.499" width="408.536" height="576.762" filterUnits="userSpaceOnUse" color-interpolation-filters="sRGB">
<feFlood flood-opacity="0" result="BackgroundImageFix"/>
<feBlend mode="normal" in="SourceGraphic" in2="BackgroundImageFix" result="shape"/>
<feGaussianBlur stdDeviation="30" result="effect1_foregroundBlur_113_833"/>
</filter>
<filter id="filter15_f_113_833" x="709.821" y="439.52" width="213.237" height="422.721" filterUnits="userSpaceOnUse" color-interpolation-filters="sRGB">
<feFlood flood-opacity="0" result="BackgroundImageFix"/>
<feBlend mode="normal" in="SourceGraphic" in2="BackgroundImageFix" result="shape"/>
<feGaussianBlur stdDeviation="30" result="effect1_foregroundBlur_113_833"/>
</filter>
<filter id="filter16_f_113_833" x="791.284" y="289.805" width="427.989" height="586.457" filterUnits="userSpaceOnUse" color-interpolation-filters="sRGB">
<feFlood flood-opacity="0" result="BackgroundImageFix"/>
<feBlend mode="normal" in="SourceGraphic" in2="BackgroundImageFix" result="shape"/>
<feGaussianBlur stdDeviation="30" result="effect1_foregroundBlur_113_833"/>
</filter>
<filter id="filter17_f_113_833" x="949.3" y="160.6" width="49.4" height="49.4" filterUnits="userSpaceOnUse" color-interpolation-filters="sRGB">
<feFlood flood-opacity="0" result="BackgroundImageFix"/>
<feBlend mode="normal" in="SourceGraphic" in2="BackgroundImageFix" result="shape"/>
<feGaussianBlur stdDeviation="7.35" result="effect1_foregroundBlur_113_833"/>
</filter>
<filter id="filter18_f_113_833" x="949.3" y="160.6" width="49.4" height="49.4" filterUnits="userSpaceOnUse" color-interpolation-filters="sRGB">
<feFlood flood-opacity="0" result="BackgroundImageFix"/>
<feBlend mode="normal" in="SourceGraphic" in2="BackgroundImageFix" result="shape"/>
<feGaussianBlur stdDeviation="7.35" result="effect1_foregroundBlur_113_833"/>
</filter>
<filter id="filter19_f_113_833" x="1040.3" y="375.6" width="58.4" height="58.4" filterUnits="userSpaceOnUse" color-interpolation-filters="sRGB">
<feFlood flood-opacity="0" result="BackgroundImageFix"/>
<feBlend mode="normal" in="SourceGraphic" in2="BackgroundImageFix" result="shape"/>
<feGaussianBlur stdDeviation="7.35" result="effect1_foregroundBlur_113_833"/>
</filter>
<filter id="filter20_f_113_833" x="1040.3" y="375.6" width="58.4" height="58.4" filterUnits="userSpaceOnUse" color-interpolation-filters="sRGB">
<feFlood flood-opacity="0" result="BackgroundImageFix"/>
<feBlend mode="normal" in="SourceGraphic" in2="BackgroundImageFix" result="shape"/>
<feGaussianBlur stdDeviation="7.35" result="effect1_foregroundBlur_113_833"/>
</filter>
<filter id="filter21_f_113_833" x="879.3" y="625.6" width="82.4" height="82.4" filterUnits="userSpaceOnUse" color-interpolation-filters="sRGB">
<feFlood flood-opacity="0" result="BackgroundImageFix"/>
<feBlend mode="normal" in="SourceGraphic" in2="BackgroundImageFix" result="shape"/>
<feGaussianBlur stdDeviation="7.35" result="effect1_foregroundBlur_113_833"/>
</filter>
<filter id="filter22_f_113_833" x="879.3" y="625.6" width="82.4" height="82.4" filterUnits="userSpaceOnUse" color-interpolation-filters="sRGB">
<feFlood flood-opacity="0" result="BackgroundImageFix"/>
<feBlend mode="normal" in="SourceGraphic" in2="BackgroundImageFix" result="shape"/>
<feGaussianBlur stdDeviation="7.35" result="effect1_foregroundBlur_113_833"/>
</filter>
<filter id="filter23_f_113_833" x="922.3" y="605.6" width="58.4" height="58.4" filterUnits="userSpaceOnUse" color-interpolation-filters="sRGB">
<feFlood flood-opacity="0" result="BackgroundImageFix"/>
<feBlend mode="normal" in="SourceGraphic" in2="BackgroundImageFix" result="shape"/>
<feGaussianBlur stdDeviation="7.35" result="effect1_foregroundBlur_113_833"/>
</filter>
<filter id="filter24_f_113_833" x="922.3" y="605.6" width="58.4" height="58.4" filterUnits="userSpaceOnUse" color-interpolation-filters="sRGB">
<feFlood flood-opacity="0" result="BackgroundImageFix"/>
<feBlend mode="normal" in="SourceGraphic" in2="BackgroundImageFix" result="shape"/>
<feGaussianBlur stdDeviation="7.35" result="effect1_foregroundBlur_113_833"/>
</filter>
<radialGradient id="paint0_radial_113_833" cx="0" cy="0" r="1" gradientUnits="userSpaceOnUse" gradientTransform="translate(859.34 884.719) rotate(84.097) scale(91.222 90.5751)">
<stop stop-color="white"/>
<stop offset="1" stop-color="#FFDD00"/>
</radialGradient>
<radialGradient id="paint1_radial_113_833" cx="0" cy="0" r="1" gradientUnits="userSpaceOnUse" gradientTransform="translate(859.34 884.719) rotate(84.097) scale(91.222 90.5751)">
<stop stop-color="white"/>
<stop offset="1" stop-color="#FFDD00"/>
</radialGradient>
<linearGradient id="paint2_linear_113_833" x1="906.342" y1="850.955" x2="823.1" y2="460.766" gradientUnits="userSpaceOnUse">
<stop stop-color="#D9D9D9"/>
<stop offset="1" stop-color="#737373" stop-opacity="0.25"/>
</linearGradient>
<linearGradient id="paint3_linear_113_833" x1="791.717" y1="682.787" x2="1565.48" y2="444.192" gradientUnits="userSpaceOnUse">
<stop stop-color="#D9D9D9"/>
<stop offset="1" stop-color="#737373" stop-opacity="0.25"/>
</linearGradient>
<linearGradient id="paint4_linear_113_833" x1="730.978" y1="660.246" x2="778.39" y2="426.595" gradientUnits="userSpaceOnUse">
<stop stop-color="#D9D9D9"/>
<stop offset="1" stop-color="#737373"/>
</linearGradient>
<linearGradient id="paint5_linear_113_833" x1="821.037" y1="666.641" x2="1597.94" y2="584.294" gradientUnits="userSpaceOnUse">
<stop stop-color="#D9D9D9"/>
<stop offset="1" stop-color="#737373" stop-opacity="0.25"/>
</linearGradient>
<linearGradient id="paint6_linear_113_833" x1="763.661" y1="817.144" x2="726.583" y2="526.605" gradientUnits="userSpaceOnUse">
<stop stop-color="#D9D9D9"/>
<stop offset="1" stop-color="#737373" stop-opacity="0.25"/>
</linearGradient>
<linearGradient id="paint7_linear_113_833" x1="852.744" y1="780.003" x2="1613.82" y2="699.333" gradientUnits="userSpaceOnUse">
<stop stop-color="#BCBCBC"/>
<stop offset="1" stop-color="#565656" stop-opacity="0.25"/>
</linearGradient>
<linearGradient id="paint8_linear_113_833" x1="906.342" y1="850.955" x2="823.1" y2="460.766" gradientUnits="userSpaceOnUse">
<stop stop-color="#D9D9D9"/>
<stop offset="1" stop-color="#737373" stop-opacity="0.25"/>
</linearGradient>
<linearGradient id="paint9_linear_113_833" x1="791.717" y1="682.787" x2="1565.48" y2="444.192" gradientUnits="userSpaceOnUse">
<stop stop-color="#D9D9D9"/>
<stop offset="1" stop-color="#737373" stop-opacity="0.25"/>
</linearGradient>
<linearGradient id="paint10_linear_113_833" x1="735.419" y1="702.141" x2="772.679" y2="465.133" gradientUnits="userSpaceOnUse">
<stop stop-color="#D9D9D9"/>
<stop offset="1" stop-color="#737373" stop-opacity="0"/>
</linearGradient>
<linearGradient id="paint11_linear_113_833" x1="821.037" y1="666.642" x2="1597.94" y2="584.294" gradientUnits="userSpaceOnUse">
<stop stop-color="#D9D9D9"/>
<stop offset="1" stop-color="#737373" stop-opacity="0.25"/>
</linearGradient>
<linearGradient id="paint12_linear_113_833" x1="763.661" y1="817.144" x2="726.583" y2="526.605" gradientUnits="userSpaceOnUse">
<stop stop-color="#D9D9D9"/>
<stop offset="1" stop-color="#737373" stop-opacity="0.25"/>
</linearGradient>
<linearGradient id="paint13_linear_113_833" x1="852.744" y1="780.003" x2="1613.82" y2="699.333" gradientUnits="userSpaceOnUse">
<stop stop-color="#BCBCBC"/>
<stop offset="1" stop-color="#565656" stop-opacity="0.25"/>
</linearGradient>
<linearGradient id="paint14_linear_113_833" x1="837.81" y1="681.681" x2="1322.61" y2="630.295" gradientUnits="userSpaceOnUse">
<stop stop-color="#FFF9C0"/>
<stop offset="1" stop-color="#300BAB" stop-opacity="0"/>
</linearGradient>
<linearGradient id="paint15_linear_113_833" x1="763.669" y1="711.414" x2="907.574" y2="603.013" gradientUnits="userSpaceOnUse">
<stop stop-color="#FFF9C0"/>
<stop offset="1" stop-color="#300BAB" stop-opacity="0"/>
</linearGradient>
<linearGradient id="paint16_linear_113_833" x1="837.81" y1="681.681" x2="1322.61" y2="630.295" gradientUnits="userSpaceOnUse">
<stop stop-color="#FFF9C0"/>
<stop offset="1" stop-color="#300BAB" stop-opacity="0"/>
</linearGradient>
</defs>
</svg>
